0
SECTION
2
ENTITIES
0
3DFACE
8
0
10
-640.0
20
-360.0
30
-623.5383
11
-640.0
21
360.0
31
-623.5383
12
640.0
22
360.0
32
-623.5383
13
640.0001
23
360.0001
33
-623.5382
0
3DFACE
8
0
10
640.0
20
360.0
30
-623.5383
11
640.0
21
-360.0
31
-623.5383
12
-640.0
22
-360.0
32
-623.5383
13
-639.9999
23
-359.9999
33
-623.5382
0
3DFACE
8
0
10
0.0
20
105.14623
30
-793.6685
11
-61.803402
21
161.8034
31
-723.5383
12
61.803402
22
161.8034
32
-723.5383
13
61.8035
23
161.80351
33
-723.5382
0
3DFACE
8
0
10
61.803402
20
161.8034
30
-723.5383
11
0.0
21
200.0
31
-623.5383
12
105.14623
22
170.13017
32
-623.5383
13
105.14633
23
170.13028
33
-623.5382
0
3DFACE
8
0
10
-61.803402
20
161.8034
30
-723.5383
11
-105.14623
21
170.13017
31
-623.5383
12
0.0
22
200.0
32
-623.5383
13
1.0E-4
23
200.0001
33
-623.5382
0
3DFACE
8
0
10
61.803402
20
161.8034
30
-723.5383
11
-61.803402
21
161.8034
31
-723.5383
12
0.0
22
200.0
32
-623.5383
13
1.0E-4
23
200.0001
33
-623.5382
0
3DFACE
8
0
10
0.0
20
105.14623
30
-453.40814
11
61.803402
21
161.8034
31
-523.5383
12
-61.803402
22
161.8034
32
-523.5383
13
-61.803303
23
161.80351
33
-523.5382
0
3DFACE
8
0
10
-61.803402
20
161.8034
30
-523.5383
11
0.0
21
200.0
31
-623.5383
12
-105.14623
22
170.13017
32
-623.5383
13
-105.14613
23
170.13028
33
-623.5382
0
3DFACE
8
0
10
61.803402
20
161.8034
30
-523.5383
11
105.14623
21
170.13017
31
-623.5383
12
0.0
22
200.0
32
-623.5383
13
1.0E-4
23
200.0001
33
-623.5382
0
3DFACE
8
0
10
-61.803402
20
161.8034
30
-523.5383
11
61.803402
21
161.8034
31
-523.5383
12
0.0
22
200.0
32
-623.5383
13
1.0E-4
23
200.0001
33
-623.5382
0
3DFACE
8
0
10
0.0
20
105.14623
30
-453.40814
11
-100.0
21
61.803402
31
-461.73492
12
0.0
22
0.0
32
-423.53833
13
1.0E-4
23
1.0E-4
33
-423.53824
0
3DFACE
8
0
10
0.0
20
0.0
30
-423.53833
11
-100.0
21
-61.803402
31
-461.73492
12
0.0
22
-105.14623
32
-453.40814
13
1.0E-4
23
-105.14613
33
-453.40805
0
3DFACE
8
0
10
-100.0
20
61.803402
30
-461.73492
11
-170.13017
21
0.0
31
-518.3921
12
-100.0
22
-61.803402
32
-461.73492
13
-99.9999
23
-61.803303
33
-461.73483
0
3DFACE
8
0
10
0.0
20
0.0
30
-423.53833
11
-100.0
21
61.803402
31
-461.73492
12
-100.0
22
-61.803402
32
-461.73492
13
-99.9999
23
-61.803303
33
-461.73483
0
3DFACE
8
0
10
0.0
20
105.14623
30
-453.40814
11
0.0
21
0.0
31
-423.53833
12
100.0
22
61.803402
32
-461.73492
13
100.0001
23
61.8035
33
-461.73483
0
3DFACE
8
0
10
100.0
20
61.803402
30
-461.73492
11
100.0
21
-61.803402
31
-461.73492
12
170.13017
22
0.0
32
-518.3921
13
170.13028
23
1.0E-4
33
-518.39197
0
3DFACE
8
0
10
0.0
20
0.0
30
-423.53833
11
0.0
21
-105.14623
31
-453.40814
12
100.0
22
-61.803402
32
-461.73492
13
100.0001
23
-61.803303
33
-461.73483
0
3DFACE
8
0
10
100.0
20
61.803402
30
-461.73492
11
0.0
21
0.0
31
-423.53833
12
100.0
22
-61.803402
32
-461.73492
13
100.0001
23
-61.803303
33
-461.73483
0
3DFACE
8
0
10
0.0
20
105.14623
30
-793.6685
11
100.0
21
61.803402
31
-785.34174
12
0.0
22
0.0
32
-823.5383
13
1.0E-4
23
1.0E-4
33
-823.5382
0
3DFACE
8
0
10
0.0
20
0.0
30
-823.5383
11
100.0
21
-61.803402
31
-785.34174
12
0.0
22
-105.14623
32
-793.6685
13
1.0E-4
23
-105.14613
33
-793.6684
0
3DFACE
8
0
10
100.0
20
61.803402
30
-785.34174
11
170.13017
21
0.0
31
-728.6846
12
100.0
22
-61.803402
32
-785.34174
13
100.0001
23
-61.803303
33
-785.3416
0
3DFACE
8
0
10
0.0
20
0.0
30
-823.5383
11
100.0
21
61.803402
31
-785.34174
12
100.0
22
-61.803402
32
-785.34174
13
100.0001
23
-61.803303
33
-785.3416
0
3DFACE
8
0
10
0.0
20
105.14623
30
-793.6685
11
0.0
21
0.0
31
-823.5383
12
-100.0
22
61.803402
32
-785.34174
13
-99.9999
23
61.8035
33
-785.3416
0
3DFACE
8
0
10
-100.0
20
61.803402
30
-785.34174
11
-100.0
21
-61.803402
31
-785.34174
12
-170.13017
22
0.0
32
-728.6846
13
-170.13007
23
1.0E-4
33
-728.68445
0
3DFACE
8
0
10
0.0
20
0.0
30
-823.5383
11
0.0
21
-105.14623
31
-793.6685
12
-100.0
22
-61.803402
32
-785.34174
13
-99.9999
23
-61.803303
33
-785.3416
0
3DFACE
8
0
10
-100.0
20
61.803402
30
-785.34174
11
0.0
21
0.0
31
-823.5383
12
-100.0
22
-61.803402
32
-785.34174
13
-99.9999
23
-61.803303
33
-785.3416
0
3DFACE
8
0
10
0.0
20
-105.14623
30
-453.40814
11
-61.803402
21
-161.8034
31
-523.5383
12
61.803402
22
-161.8034
32
-523.5383
13
61.8035
23
-161.8033
33
-523.5382
0
3DFACE
8
0
10
61.803402
20
-161.8034
30
-523.5383
11
0.0
21
-200.0
31
-623.5383
12
105.14623
22
-170.13017
32
-623.5383
13
105.14633
23
-170.13007
33
-623.5382
0
3DFACE
8
0
10
-61.803402
20
-161.8034
30
-523.5383
11
-105.14623
21
-170.13017
31
-623.5383
12
0.0
22
-200.0
32
-623.5383
13
1.0E-4
23
-199.9999
33
-623.5382
0
3DFACE
8
0
10
61.803402
20
-161.8034
30
-523.5383
11
-61.803402
21
-161.8034
31
-523.5383
12
0.0
22
-200.0
32
-623.5383
13
1.0E-4
23
-199.9999
33
-623.5382
0
3DFACE
8
0
10
0.0
20
-105.14623
30
-793.6685
11
61.803402
21
-161.8034
31
-723.5383
12
-61.803402
22
-161.8034
32
-723.5383
13
-61.803303
23
-161.8033
33
-723.5382
0
3DFACE
8
0
10
-61.803402
20
-161.8034
30
-723.5383
11
0.0
21
-200.0
31
-623.5383
12
-105.14623
22
-170.13017
32
-623.5383
13
-105.14613
23
-170.13007
33
-623.5382
0
3DFACE
8
0
10
61.803402
20
-161.8034
30
-723.5383
11
105.14623
21
-170.13017
31
-623.5383
12
0.0
22
-200.0
32
-623.5383
13
1.0E-4
23
-199.9999
33
-623.5382
0
3DFACE
8
0
10
-61.803402
20
-161.8034
30
-723.5383
11
61.803402
21
-161.8034
31
-723.5383
12
0.0
22
-200.0
32
-623.5383
13
1.0E-4
23
-199.9999
33
-623.5382
0
3DFACE
8
0
10
-105.14623
20
170.13017
30
-623.5383
11
-161.8034
21
100.0
31
-685.34174
12
-161.8034
22
100.0
32
-561.7349
13
-161.8033
23
100.0001
33
-561.7348
0
3DFACE
8
0
10
-161.8034
20
100.0
30
-561.7349
11
-200.0
21
0.0
31
-623.5383
12
-170.13017
22
0.0
32
-518.3921
13
-170.13007
23
1.0E-4
33
-518.39197
0
3DFACE
8
0
10
-161.8034
20
100.0
30
-685.34174
11
-170.13017
21
0.0
31
-728.6846
12
-200.0
22
0.0
32
-623.5383
13
-199.9999
23
1.0E-4
33
-623.5382
0
3DFACE
8
0
10
-161.8034
20
100.0
30
-561.7349
11
-161.8034
21
100.0
31
-685.34174
12
-200.0
22
0.0
32
-623.5383
13
-199.9999
23
1.0E-4
33
-623.5382
0
3DFACE
8
0
10
-105.14623
20
-170.13017
30
-623.5383
11
-161.8034
21
-100.0
31
-561.7349
12
-161.8034
22
-100.0
32
-685.34174
13
-161.8033
23
-99.9999
33
-685.3416
0
3DFACE
8
0
10
-161.8034
20
-100.0
30
-685.34174
11
-200.0
21
0.0
31
-623.5383
12
-170.13017
22
0.0
32
-728.6846
13
-170.13007
23
1.0E-4
33
-728.68445
0
3DFACE
8
0
10
-161.8034
20
-100.0
30
-561.7349
11
-170.13017
21
0.0
31
-518.3921
12
-200.0
22
0.0
32
-623.5383
13
-199.9999
23
1.0E-4
33
-623.5382
0
3DFACE
8
0
10
-161.8034
20
-100.0
30
-685.34174
11
-161.8034
21
-100.0
31
-561.7349
12
-200.0
22
0.0
32
-623.5383
13
-199.9999
23
1.0E-4
33
-623.5382
0
3DFACE
8
0
10
105.14623
20
170.13017
30
-623.5383
11
161.8034
21
100.0
31
-561.7349
12
161.8034
22
100.0
32
-685.34174
13
161.80351
23
100.0001
33
-685.3416
0
3DFACE
8
0
10
161.8034
20
100.0
30
-685.34174
11
200.0
21
0.0
31
-623.5383
12
170.13017
22
0.0
32
-728.6846
13
170.13028
23
1.0E-4
33
-728.68445
0
3DFACE
8
0
10
161.8034
20
100.0
30
-561.7349
11
170.13017
21
0.0
31
-518.3921
12
200.0
22
0.0
32
-623.5383
13
200.0001
23
1.0E-4
33
-623.5382
0
3DFACE
8
0
10
161.8034
20
100.0
30
-685.34174
11
161.8034
21
100.0
31
-561.7349
12
200.0
22
0.0
32
-623.5383
13
200.0001
23
1.0E-4
33
-623.5382
0
3DFACE
8
0
10
105.14623
20
-170.13017
30
-623.5383
11
161.8034
21
-100.0
31
-685.34174
12
161.8034
22
-100.0
32
-561.7349
13
161.80351
23
-99.9999
33
-561.7348
0
3DFACE
8
0
10
161.8034
20
-100.0
30
-561.7349
11
200.0
21
0.0
31
-623.5383
12
170.13017
22
0.0
32
-518.3921
13
170.13028
23
1.0E-4
33
-518.39197
0
3DFACE
8
0
10
161.8034
20
-100.0
30
-685.34174
11
170.13017
21
0.0
31
-728.6846
12
200.0
22
0.0
32
-623.5383
13
200.0001
23
1.0E-4
33
-623.5382
0
3DFACE
8
0
10
161.8034
20
-100.0
30
-561.7349
11
161.8034
21
-100.0
31
-685.34174
12
200.0
22
0.0
32
-623.5383
13
200.0001
23
1.0E-4
33
-623.5382
0
3DFACE
8
0
10
0.0
20
105.14623
30
-453.40814
11
-61.803402
21
161.8034
31
-523.5383
12
-100.0
22
61.803402
32
-461.73492
13
-99.9999
23
61.8035
33
-461.73483
0
3DFACE
8
0
10
-100.0
20
61.803402
30
-461.73492
11
-161.8034
21
100.0
31
-561.7349
12
-170.13017
22
0.0
32
-518.3921
13
-170.13007
23
1.0E-4
33
-518.39197
0
3DFACE
8
0
10
-61.803402
20
161.8034
30
-523.5383
11
-105.14623
21
170.13017
31
-623.5383
12
-161.8034
22
100.0
32
-561.7349
13
-161.8033
23
100.0001
33
-561.7348
0
3DFACE
8
0
10
-100.0
20
61.803402
30
-461.73492
11
-61.803402
21
161.8034
31
-523.5383
12
-161.8034
22
100.0
32
-561.7349
13
-161.8033
23
100.0001
33
-561.7348
0
3DFACE
8
0
10
0.0
20
105.14623
30
-453.40814
11
100.0
21
61.803402
31
-461.73492
12
61.803402
22
161.8034
32
-523.5383
13
61.8035
23
161.80351
33
-523.5382
0
3DFACE
8
0
10
61.803402
20
161.8034
30
-523.5383
11
161.8034
21
100.0
31
-561.7349
12
105.14623
22
170.13017
32
-623.5383
13
105.14633
23
170.13028
33
-623.5382
0
3DFACE
8
0
10
100.0
20
61.803402
30
-461.73492
11
170.13017
21
0.0
31
-518.3921
12
161.8034
22
100.0
32
-561.7349
13
161.80351
23
100.0001
33
-561.7348
0
3DFACE
8
0
10
61.803402
20
161.8034
30
-523.5383
11
100.0
21
61.803402
31
-461.73492
12
161.8034
22
100.0
32
-561.7349
13
161.80351
23
100.0001
33
-561.7348
0
3DFACE
8
0
10
0.0
20
105.14623
30
-793.6685
11
-100.0
21
61.803402
31
-785.34174
12
-61.803402
22
161.8034
32
-723.5383
13
-61.803303
23
161.80351
33
-723.5382
0
3DFACE
8
0
10
-61.803402
20
161.8034
30
-723.5383
11
-161.8034
21
100.0
31
-685.34174
12
-105.14623
22
170.13017
32
-623.5383
13
-105.14613
23
170.13028
33
-623.5382
0
3DFACE
8
0
10
-100.0
20
61.803402
30
-785.34174
11
-170.13017
21
0.0
31
-728.6846
12
-161.8034
22
100.0
32
-685.34174
13
-161.8033
23
100.0001
33
-685.3416
0
3DFACE
8
0
10
-61.803402
20
161.8034
30
-723.5383
11
-100.0
21
61.803402
31
-785.34174
12
-161.8034
22
100.0
32
-685.34174
13
-161.8033
23
100.0001
33
-685.3416
0
3DFACE
8
0
10
0.0
20
105.14623
30
-793.6685
11
61.803402
21
161.8034
31
-723.5383
12
100.0
22
61.803402
32
-785.34174
13
100.0001
23
61.8035
33
-785.3416
0
3DFACE
8
0
10
100.0
20
61.803402
30
-785.34174
11
161.8034
21
100.0
31
-685.34174
12
170.13017
22
0.0
32
-728.6846
13
170.13028
23
1.0E-4
33
-728.68445
0
3DFACE
8
0
10
61.803402
20
161.8034
30
-723.5383
11
105.14623
21
170.13017
31
-623.5383
12
161.8034
22
100.0
32
-685.34174
13
161.80351
23
100.0001
33
-685.3416
0
3DFACE
8
0
10
100.0
20
61.803402
30
-785.34174
11
61.803402
21
161.8034
31
-723.5383
12
161.8034
22
100.0
32
-685.34174
13
161.80351
23
100.0001
33
-685.3416
0
3DFACE
8
0
10
0.0
20
-105.14623
30
-793.6685
11
-61.803402
21
-161.8034
31
-723.5383
12
-100.0
22
-61.803402
32
-785.34174
13
-99.9999
23
-61.803303
33
-785.3416
0
3DFACE
8
0
10
-100.0
20
-61.803402
30
-785.34174
11
-161.8034
21
-100.0
31
-685.34174
12
-170.13017
22
0.0
32
-728.6846
13
-170.13007
23
1.0E-4
33
-728.68445
0
3DFACE
8
0
10
-61.803402
20
-161.8034
30
-723.5383
11
-105.14623
21
-170.13017
31
-623.5383
12
-161.8034
22
-100.0
32
-685.34174
13
-161.8033
23
-99.9999
33
-685.3416
0
3DFACE
8
0
10
-100.0
20
-61.803402
30
-785.34174
11
-61.803402
21
-161.8034
31
-723.5383
12
-161.8034
22
-100.0
32
-685.34174
13
-161.8033
23
-99.9999
33
-685.3416
0
3DFACE
8
0
10
0.0
20
-105.14623
30
-793.6685
11
100.0
21
-61.803402
31
-785.34174
12
61.803402
22
-161.8034
32
-723.5383
13
61.8035
23
-161.8033
33
-723.5382
0
3DFACE
8
0
10
61.803402
20
-161.8034
30
-723.5383
11
161.8034
21
-100.0
31
-685.34174
12
105.14623
22
-170.13017
32
-623.5383
13
105.14633
23
-170.13007
33
-623.5382
0
3DFACE
8
0
10
100.0
20
-61.803402
30
-785.34174
11
170.13017
21
0.0
31
-728.6846
12
161.8034
22
-100.0
32
-685.34174
13
161.80351
23
-99.9999
33
-685.3416
0
3DFACE
8
0
10
61.803402
20
-161.8034
30
-723.5383
11
100.0
21
-61.803402
31
-785.34174
12
161.8034
22
-100.0
32
-685.34174
13
161.80351
23
-99.9999
33
-685.3416
0
3DFACE
8
0
10
0.0
20
-105.14623
30
-453.40814
11
-100.0
21
-61.803402
31
-461.73492
12
-61.803402
22
-161.8034
32
-523.5383
13
-61.803303
23
-161.8033
33
-523.5382
0
3DFACE
8
0
10
-61.803402
20
-161.8034
30
-523.5383
11
-161.8034
21
-100.0
31
-561.7349
12
-105.14623
22
-170.13017
32
-623.5383
13
-105.14613
23
-170.13007
33
-623.5382
0
3DFACE
8
0
10
-100.0
20
-61.803402
30
-461.73492
11
-170.13017
21
0.0
31
-518.3921
12
-161.8034
22
-100.0
32
-561.7349
13
-161.8033
23
-99.9999
33
-561.7348
0
3DFACE
8
0
10
-61.803402
20
-161.8034
30
-523.5383
11
-100.0
21
-61.803402
31
-461.73492
12
-161.8034
22
-100.0
32
-561.7349
13
-161.8033
23
-99.9999
33
-561.7348
0
3DFACE
8
0
10
0.0
20
-105.14623
30
-453.40814
11
61.803402
21
-161.8034
31
-523.5383
12
100.0
22
-61.803402
32
-461.73492
13
100.0001
23
-61.803303
33
-461.73483
0
3DFACE
8
0
10
100.0
20
-61.803402
30
-461.73492
11
161.8034
21
-100.0
31
-561.7349
12
170.13017
22
0.0
32
-518.3921
13
170.13028
23
1.0E-4
33
-518.39197
0
3DFACE
8
0
10
61.803402
20
-161.8034
30
-523.5383
11
105.14623
21
-170.13017
31
-623.5383
12
161.8034
22
-100.0
32
-561.7349
13
161.80351
23
-99.9999
33
-561.7348
0
3DFACE
8
0
10
100.0
20
-61.803402
30
-461.73492
11
61.803402
21
-161.8034
31
-523.5383
12
161.8034
22
-100.0
32
-561.7349
13
161.80351
23
-99.9999
33
-561.7348
0
ENDSEC
0
EOF
